<svg id="Capa_1" enable-background="new 0 0 511.755 511.755" height="512" viewBox="0 0 511.755 511.755" width="512" xmlns="http://www.w3.org/2000/svg"><g><g><path d="m120.518 474.838 40.8-82.415 36.972 16.964-35.144 69.744z" fill="#365f7e"/><path d="m350.48 482.844-38.029-75.468 40.552-9.771 40.359 81.526z" fill="#365f7e"/><g fill="#2c4d66"><path d="m369.81 431.565h-.31c-20.13 0-37.84-10.54-47.9-26.4l31.4-7.56z"/><path d="m166.498 423.147c6.726 3.086 13.635 5.839 20.713 8.228l11.08-21.99-36.97-16.96-11.1 22.42-29.7 59.99 42.63 4.3 12.53-24.88h-21.917c-3.708 0-6.126-3.895-4.481-7.218l10.673-21.56c1.195-2.416 4.092-3.454 6.542-2.33z"/><path d="m361.53 414.845c-11.69 6.62-24.06 12.17-36.98 16.53l-12.1-24 40.55-9.77z"/><path d="m393.36 479.135-42.88 3.71-14.41-28.59h44.97z"/></g><path d="m270.92 201.209v-131.199l-30 .001v131.153z" fill="#365f7e"/><path d="m270.92 70.015h-15l15-.01z" fill="#407194"/><path d="m240.92 70.015h15v131.15h-15z" fill="#2c4d66"/><path d="m280.32 204.227 118.983-35.894 5.155 29.779-127.556 38.48z" fill="#365f7e"/><path d="m404.46 198.115-127.56 38.48 1.86-17.56 122.9-37.08z" fill="#2c4d66"/><path d="m116.57 169.851 113.351 33.893-3.142 30.387-120.503-36.051z" fill="#365f7e"/><path d="m226.78 234.135-120.5-36.06 4.93-13.52 115.57 34.58z" fill="#2c4d66"/><path d="m137.631 344.755 86.702-103.217 25.646 16.11-78.806 93.817z" fill="#365f7e"/><path d="m249.98 257.645-78.81 93.82-13.707-10 78.49-93.44z" fill="#2c4d66"/><path d="m339.903 351.465-81.691-98.029 23.745-18.368 94.024 112.829z" fill="#365f7e"/><path d="m358.38 349.635-18.48 1.83-81.69-98.03h20z" fill="#2c4d66"/><path d="m255.877 427.605c-110.443 0-200.295-89.892-200.295-200.383s89.852-200.382 200.295-200.382 200.296 89.892 200.296 200.383-89.852 200.382-200.296 200.382zm0-370.765c-93.901 0-170.295 76.434-170.295 170.383s76.394 170.383 170.295 170.383 170.296-76.434 170.296-170.383-76.394-170.383-170.296-170.383z" fill="#365f7e"/><path d="m216.502 61.432c-8.218 1.955-16.208 4.508-23.921 7.612-3.38-7.25-5.27-15.33-5.27-23.84v-6.27c8.077-2.955 16.397-5.404 24.92-7.307 14.056-3.137 16.914 26.798 4.271 29.805z" fill="#2c4d66"/><path d="m87.226 203.497c-1.085 7.756-1.646 15.678-1.646 23.727v.6h-20.62c-3.2 0-6.33-.27-9.38-.78.009-8.768.583-17.406 1.688-25.88z" fill="#2c4d66"/><ellipse cx="255.878" cy="227.223" fill="#365f7e" rx="39.5" ry="39.5" transform="matrix(.924 -.383 .383 .924 -67.477 115.216)"/><path d="m290.29 246.615c-6.79 11.99-19.67 20.11-34.41 20.11-21.78 0-39.5-17.72-39.5-39.5 0-14.73 8.1-27.6 20.09-34.39-3.24 5.73-5.09 12.35-5.09 19.39 0 21.78 17.72 39.5 39.5 39.5 7.05 0 13.68-1.86 19.41-5.11z" fill="#2c4d66"/><path d="m393.36 479.135-42.88 3.71-14.41-28.59h44.97z" fill="#2c4d66"/><path d="m106.92 469.255h292c11.046 0 20 8.954 20 20v5c0 5.523-4.477 10-10 10h-312c-5.523 0-10-4.477-10-10v-5c0-11.046 8.955-20 20-20z" fill="#b7e546"/><path d="m116.92 504.255h-20c-5.52 0-10-4.48-10-10v-5c0-11.05 8.95-20 20-20h20c-11.05 0-20 8.95-20 20v5c0 5.52 4.48 10 10 10z" fill="#abd641"/><path d="m270.92 70.005v31.81c-1.05.06-2.11.09-3.18.09h-23.72c-1.04 0-2.08-.03-3.1-.08v-31.81z" fill="#2c4d66"/><path d="m404.46 198.115-26.08 7.87c-6.16-7.88-10.29-17.43-11.57-27.85l32.49-9.8z" fill="#2c4d66"/><path d="m456.17 227.045c-3.05.51-6.18.78-9.38.78h-20.62v-.6c0-7.803-1.548-23.015-1.548-23.015l30.025-1.747c.001 0 1.515 16.261 1.523 24.582z" fill="#2c4d66"/><path d="m478.495 133.42h-87.128c-5.523 0-10 4.477-10 10v27.702c0 23.031 18.671 41.702 41.702 41.702h23.724c23.031 0 41.702-18.671 41.702-41.702v-27.702c0-5.523-4.477-10-10-10z" fill="#f8e837"/><path d="m443.084 212.827h-20c-23.04 0-41.71-18.67-41.71-41.7v-27.71c0-5.52 4.48-10 10-10h20c-5.52 0-10 4.48-10 10v27.71c0 23.03 18.67 41.7 41.71 41.7z" fill="#f3d332"/><path d="m86.824 337.164h87.128c5.523 0 10 4.477 10 10v27.702c0 23.031-18.671 41.702-41.702 41.702h-23.724c-23.031 0-41.702-18.671-41.702-41.702v-27.702c0-5.523 4.477-10 10-10z" fill="#e592d0"/><path d="m138.534 416.571h-20c-23.04 0-41.71-18.67-41.71-41.7v-27.71c0-5.52 4.48-10 10-10h20c-5.52 0-10 4.48-10 10v27.71c0 23.03 18.67 41.7 41.71 41.7z" fill="#e172c1"/><path d="m355.752 403.164-15.899-27.751c-8.163 4.648-16.745 8.639-25.673 11.902 1.44 6.43 3.99 12.45 7.42 17.86 2.018 3.143 4.324 6.096 6.89 8.81l.011-.005c10.33 10.828 24.886 17.585 40.999 17.585h.31z" fill="#2c4d66"/><path d="m424.931 337.164h-87.128c-5.523 0-10 4.477-10 10v27.702c0 23.031 18.671 41.702 41.702 41.702h23.724c23.031 0 41.702-18.671 41.702-41.702v-27.702c0-5.523-4.477-10-10-10z" fill="#e3e0e4"/><path d="m389.235 416.571h-20c-23.04 0-41.71-18.67-41.71-41.7v-27.71c0-5.52 4.48-10 10-10h20c-5.52 0-10 4.48-10 10v27.71c0 23.03 18.67 41.7 41.71 41.7z" fill="#c8c3ca"/><path d="m212.314 7.5h87.128c5.523 0 10 4.477 10 10v27.702c0 23.031-18.671 41.702-41.702 41.702h-23.724c-23.031 0-41.702-18.671-41.702-41.702v-27.702c0-5.523 4.477-10 10-10z" fill="#dc4955"/><path d="m264.02 86.905h-20c-23.04 0-41.71-18.67-41.71-41.7v-27.71c0-5.52 4.48-10 10-10h20c-5.52 0-10 4.48-10 10v27.71c0 23.03 18.67 41.7 41.71 41.7z" fill="#d82f3c"/><path d="m33.26 133.42h87.128c5.523 0 10 4.477 10 10v27.702c0 23.031-18.671 41.702-41.702 41.702h-23.724c-23.031 0-41.702-18.671-41.702-41.702v-27.702c0-5.523 4.477-10 10-10z" fill="#b2e5fb"/><path d="m84.96 212.825h-20c-23.03 0-41.7-18.67-41.7-41.7v-27.71c0-5.52 4.48-10 10-10h20c-5.52 0-10 4.48-10 10v27.71c0 23.03 18.67 41.7 41.7 41.7z" fill="#91dafa"/></g><g><path d="m478.495 125.92h-41.214c-26.113-46.609-69.532-81.744-120.339-97.416v-11.004c0-9.649-7.851-17.5-17.5-17.5h-87.128c-9.649 0-17.5 7.851-17.5 17.5v11.007c-20.009 6.163-38.924 15.305-56.293 27.238-3.414 2.346-4.28 7.015-1.935 10.429 2.36 3.439 7.056 4.263 10.429 1.935 14.829-10.188 30.872-18.181 47.799-23.846-.079 5.207.644 10.368 2.097 15.138-35.121 12.393-65.712 35.723-87.111 66.52h-17.92c8.188-13.222 17.939-25.423 29.109-36.378 2.957-2.9 3.003-7.649.103-10.606-2.901-2.957-7.649-3.003-10.606-.103-14.224 13.952-26.323 29.776-36.016 47.087h-41.21c-9.649 0-17.5 7.851-17.5 17.5v27.702c0 21.291 13.596 39.461 32.56 46.299-.152 3.264-.238 6.541-.238 9.802 0 37.332 9.942 73.606 28.827 105.536-4.577 3.16-7.586 8.435-7.586 14.405v27.702c0 27.13 22.072 49.202 49.202 49.202h18.757l-18.657 37.687h-11.705c-15.163 0-27.5 12.337-27.5 27.5v5c0 9.649 7.851 17.5 17.5 17.5h312c9.649 0 17.5-7.851 17.5-17.5v-5c0-15.163-12.337-27.5-27.5-27.5h-5.791l-18.657-37.687h18.757c27.13 0 49.202-22.072 49.202-49.202v-27.702c0-5.97-3.009-11.245-7.586-14.405 18.885-31.93 28.828-68.203 28.828-105.536 0-3.26-.086-6.538-.238-9.802 18.963-6.838 32.559-25.008 32.559-46.299v-27.703c.001-9.649-7.85-17.5-17.499-17.5zm-58.632 0h-17.907c-21.399-30.797-51.99-54.127-87.111-66.52 1.454-4.771 2.177-9.935 2.097-15.144 42.56 14.278 79.184 43.375 102.921 81.664zm-117.404 95.129c-.671-5.087-2.148-9.922-4.316-14.365l77.268-23.31c1.278 4.967 3.323 9.626 5.986 13.861zm-46.582 214.056c19.9 0 39.305-2.754 58.01-8.214l17.568 34.863h-151.155l17.568-34.863c18.705 5.46 38.11 8.214 58.009 8.214zm59.946-24.532c-19.225 6.356-39.299 9.523-59.945 9.532-26.02.003-51.104-5.073-74.779-15.1 3.083-3.964 5.583-8.403 7.347-13.198 21.39 8.82 44.031 13.298 67.432 13.298 23.409 0 46.049-4.475 67.434-13.294 1.764 4.793 4.263 9.231 7.345 13.194-4.884 2.069-9.831 3.922-14.834 5.568zm-135.251-116.938c-3.173-2.664-7.903-2.254-10.567.919l-29.493 35.11h-11.107c-23.447-28.935-36.322-65.173-36.322-102.441 0-2.368.054-4.746.156-7.117 9.822-.906 18.811-4.711 26.113-10.549l90.525 27.309c.543 2.595 1.31 5.108 2.263 7.527l-19.592 23.324c-2.664 3.172-2.253 7.902.919 10.567 3.155 2.653 7.892 2.264 10.567-.919l16.317-19.424c3.284 3.792 7.157 7.059 11.484 9.646l-52.785 62.839c-1.614-.493-3.325-.762-5.098-.762h-13.849l21.388-25.462c2.664-3.172 2.252-7.902-.919-10.567zm-44.223-110.285 77.274 23.312c-2.17 4.442-3.651 9.276-4.324 14.362l-78.928-23.81c2.661-4.236 4.703-8.897 5.978-13.864zm112.071-88.946h15v86.432c-4.862-.807-10.135-.813-15-.015zm-4.602 103.186c7.41-3.15 16.852-3.127 24.246.05 11.616 4.803 19.813 16.252 19.813 29.583 0 5.403-1.351 10.494-3.725 14.963-.017.033-.034.065-.05.098-5.396 10.071-16.022 16.94-28.224 16.94-12.24 0-22.893-6.912-28.273-17.034-.001-.002-.003-.005-.004-.007-2.373-4.467-3.723-9.557-3.723-14.958-.001-13.381 8.257-24.863 19.94-29.635zm76.534 179.187c-20.375 8.842-42.037 13.328-64.474 13.328-22.43 0-44.096-4.482-64.474-13.323.024-.637.049-1.274.049-1.917v-27.702c0-2.343-.471-4.576-1.31-6.62l56.482-67.24c5.914 1.213 12.478 1.22 18.397.02l56.416 67.699c-.721 1.915-1.134 3.979-1.134 6.142v27.702c-.001.641.023 1.276.048 1.911zm17.451-47.113c-1.938 0-3.798.33-5.542.914l-52.443-62.932c4.335-2.577 8.218-5.833 11.51-9.617l59.696 71.635zm36.064-186.244v24.752l-84.977 25.635c-3.1-3.063-6.621-5.7-10.469-7.813v-92.771c12.334-2.742 22.938-10.119 29.88-20.212 30.04 10.256 56.55 29.23 76.101 54.363-6.192 2.699-10.535 8.872-10.535 16.046zm-164.053-125.92c0-1.379 1.121-2.5 2.5-2.5h87.128c1.379 0 2.5 1.121 2.5 2.5v27.702c0 18.859-15.343 34.202-34.202 34.202h-23.724c-18.859 0-34.202-15.343-34.202-34.202zm-6.358 55.512c6.957 10.115 17.594 17.504 29.965 20.231v92.703c-3.874 2.116-7.416 4.765-10.534 7.842l-84.998-25.642v-24.726c0-7.174-4.343-13.346-10.534-16.045 19.55-25.134 46.06-44.108 76.101-54.363zm-172.696 98.11v-27.702c0-1.379 1.121-2.5 2.5-2.5h87.128c1.379 0 2.5 1.121 2.5 2.5-.047 1.908.094 28.252-.06 29.659-1.018 17.952-15.94 32.245-34.142 32.245h-23.724c-18.859 0-34.202-15.343-34.202-34.202zm32.45 49.158c.628.082 13.971.031 15.011.044-.088 2.3-.138 4.604-.138 6.898 0 36.744 11.458 72.572 32.523 102.441h-18.02c-19.313-30.698-29.503-66.026-29.503-102.441 0-2.308.045-4.627.127-6.942zm21.114 154.586v-27.702c0-1.379 1.121-2.5 2.5-2.5h1.658c.005 0 .011.001.016.001s.009-.001.014-.001h37.351c.006 0 .012.001.018.001.008 0 .015-.001.023-.001h48.048c1.379 0 2.5 1.121 2.5 2.5v27.702c.011 18.919-15.488 34.23-34.202 34.202h-23.724c-18.859 0-34.202-15.342-34.202-34.202zm70.507 47.565c5.125-1.357 9.92-3.526 14.25-6.355 4.748 2.195 9.554 4.196 14.411 6.013l-19.988 39.665h-28.14zm256.589 66.824v5c0 1.379-1.121 2.5-2.5 2.5h-312c-1.379 0-2.5-1.121-2.5-2.5v-5c0-6.893 5.607-12.5 12.5-12.5h292c6.893 0 12.5 5.607 12.5 12.5zm-63.169-27.5-19.988-39.665c4.857-1.817 9.663-3.818 14.411-6.013 4.329 2.828 9.125 4.998 14.25 6.355l19.468 39.323zm79.18-86.889c0 18.859-15.343 34.202-34.202 34.202h-23.724c-18.714.028-34.214-15.284-34.202-34.202v-27.702c.003-1.374 1.122-2.501 2.5-2.5h48.048 39.08c1.379 0 2.5 1.121 2.5 2.5zm21.242-147.643c0 36.416-10.191 71.745-29.505 102.441h-18.038c6.231-8.818 11.669-18.167 16.198-27.958 1.739-3.76.102-8.217-3.657-9.956-3.76-1.74-8.217-.101-9.956 3.657-5.664 12.243-12.863 23.743-21.389 34.257h-11.776l-70.975-85.17c.969-2.442 1.746-4.979 2.297-7.6l90.555-27.319c7.298 5.828 16.279 9.626 26.091 10.53.102 2.371.156 4.749.156 7.117 0 12.332-1.389 24.625-4.129 36.538-.928 4.036 1.592 8.062 5.629 8.99 3.931.937 8.078-1.562 8.99-5.629 2.992-13.014 4.51-26.438 4.51-39.899 0-2.295-.05-4.599-.138-6.898 1.084-.013 14.349.038 15.011-.044.081 2.315.126 4.634.126 6.943zm32.322-56.101c0 18.859-15.343 34.202-34.202 34.202h-23.724c-18.184 0-33.093-14.265-34.138-32.192-.046-.667-.062-1.335-.064-2.01v-27.702c0-1.379 1.121-2.5 2.5-2.5h41.466c.005 0 .01.001.015.001s.011-.001.016-.001h45.631c1.379 0 2.5 1.121 2.5 2.5z"/></g></g></svg>