<svg id="Capa_1" enable-background="new 0 0 512.103 512.103" height="512" viewBox="0 0 512.103 512.103" width="512" xmlns="http://www.w3.org/2000/svg"><g><g><path d="m216.552 152.461h70v64.011 24.5 24.5 63 25 25 63.51h-70v-63.51l4-25-4-25v-63l4-24.5-4-24.5z" fill="#dc4955"/><path d="m286.552 152.461h-64.862v.001h-5.138v64.01l5 21.788-5 27.212v63l3 29.105-3 20.895v63.51h20v-252.872c0-2.838 2.3-5.138 5.138-5.138h44.862z" fill="#d82f3c"/><path d="m148.311 338.936c-.388 0-.779-.03-1.174-.092-4.092-.644-6.887-4.482-6.244-8.574l29.298-186.351c.644-4.092 4.483-6.885 8.574-6.244 4.092.644 6.887 4.482 6.244 8.574l-29.298 186.351c-.582 3.697-3.772 6.336-7.4 6.336z" fill="#e3e0e4"/><path d="m45.996 298.666c-.396 0-.798-.031-1.202-.097-4.089-.658-6.871-4.507-6.212-8.597l23.987-147.946c.659-4.09 4.513-6.869 8.597-6.212 4.089.659 6.871 4.508 6.212 8.597l-23.987 147.946c-.594 3.686-3.779 6.309-7.395 6.309z" fill="#e3e0e4"/><path d="m456.318 294.855c-3.617 0-6.802-2.623-7.396-6.309l-22.517-139.91c-.658-4.089 2.123-7.938 6.212-8.597 4.095-.657 7.938 2.124 8.597 6.212l22.517 139.91c.658 4.09-2.123 7.938-6.212 8.597-.403.066-.805.097-1.201.097z" fill="#e3e0e4"/><g fill="#c8c3ca"><path d="m185.012 146.252-5.93 37.72h-15.19l6.3-40.05c.64-4.09 4.48-6.89 8.57-6.25 4.1.65 6.89 4.49 6.25 8.58z"/><path d="m77.382 144.412-6.41 39.56h-15.2l6.8-41.94c.66-4.09 4.51-6.87 8.59-6.22 4.09.66 6.87 4.51 6.22 8.6z"/><path d="m339.212 183.972h-15.19l-5.49-34.91c-.64-4.1 2.16-7.94 6.25-8.58s7.93 2.15 8.57 6.25z"/><path d="m447.282 183.972h-15.19l-5.69-35.33c-.65-4.09 2.13-7.94 6.22-8.6s7.93 2.12 8.59 6.21z"/></g><path d="m477.552 89.472-219.764-81.358c-1.12-.415-2.352-.415-3.472 0l-219.764 81.358 221 10z" fill="#dc4955"/><path d="m110.839 90.136-35.69 6.679-42.032-6.843 221.196-81.86c1.12-.41 2.36-.41 3.48 0l9.49 3.51z" fill="#d82f3c"/><path d="m77.382 144.412-6.41 39.56h-15.2l6.8-41.94c.66-4.09 4.51-6.87 8.59-6.22 4.09.66 6.87 4.51 6.22 8.6z" fill="#c8c3ca"/><path d="m185.012 146.252-5.93 37.72h-15.19l6.3-40.05c.64-4.09 4.48-6.89 8.57-6.25 4.1.65 6.89 4.49 6.25 8.58z" fill="#c8c3ca"/><path d="m333.352 146.732 5.86 37.24h-15.19l-5.49-34.91c-.64-4.1 2.16-7.94 6.25-8.58s7.93 2.15 8.57 6.25z" fill="#c8c3ca"/><path d="m447.282 183.972h-15.19l-5.69-35.33c-.65-4.09 2.13-7.94 6.22-8.6s7.93 2.12 8.59 6.21z" fill="#c8c3ca"/><path d="m17.683 89.972h476.738c6.672 0 11.52 6.294 9.771 12.685l-14.75 53.899c-1.198 4.377-5.201 7.416-9.771 7.416h-447.239c-4.57 0-8.573-3.038-9.771-7.416l-14.75-53.899c-1.749-6.392 3.099-12.685 9.772-12.685z" fill="#f8e837"/><path d="m52.432 163.972h-20c-4.57 0-8.57-3.04-9.77-7.42l-14.75-53.89c-1.75-6.4 3.1-12.69 9.77-12.69h20c-6.67 0-11.52 6.29-9.77 12.69l14.75 53.89c1.2 4.38 5.2 7.42 9.77 7.42z" fill="#f3d332"/><path d="m182.552 430.472h138c22.091 0 40 17.909 40 40v24.004c0 5.521-4.476 9.996-9.996 9.996h-198.008c-5.521 0-9.996-4.476-9.996-9.996v-24.004c0-22.092 17.908-40 40-40z" fill="#b7e546"/><path d="m162.552 470.472v24c0 5.52 4.48 10 10 10h-20c-5.52 0-10-4.48-10-10v-24c0-22.09 17.91-40 40-40h20c-22.09 0-40 17.91-40 40z" fill="#abd641"/><circle cx="47.552" cy="322.472" fill="#e592d0" r="40"/><circle cx="149.052" cy="355.972" fill="#e592d0" r="32.5"/><circle cx="354.052" cy="355.972" fill="#e592d0" r="32.5"/><circle cx="464.552" cy="322.472" fill="#e592d0" r="40"/><path d="m83.412 340.202c-6.53 13.2-20.14 22.27-35.86 22.27-22.09 0-40-17.91-40-40 0-14.86 8.11-27.83 20.14-34.73-2.65 5.35-4.14 11.37-4.14 17.73 0 22.09 17.91 40 40 40 7.22 0 14-1.92 19.86-5.27z" fill="#e172c1"/><path d="m179.142 368.262c-4.84 11.86-16.49 20.21-30.09 20.21-17.95 0-32.5-14.55-32.5-32.5 0-12.9 7.52-24.05 18.41-29.29-1.56 3.79-2.41 7.94-2.41 12.29 0 17.95 14.55 32.5 32.5 32.5 5.05 0 9.83-1.15 14.09-3.21z" fill="#e172c1"/><path d="m384.142 368.262c-4.84 11.86-16.49 20.21-30.09 20.21-17.95 0-32.5-14.55-32.5-32.5 0-12.9 7.52-24.05 18.41-29.29-1.56 3.79-2.41 7.94-2.41 12.29 0 17.95 14.55 32.5 32.5 32.5 5.05 0 9.83-1.15 14.09-3.21z" fill="#e172c1"/><path d="m500.412 340.202c-6.53 13.2-20.14 22.27-35.86 22.27-22.09 0-40-17.91-40-40 0-14.86 8.11-27.83 20.14-34.73-2.65 5.35-4.14 11.37-4.14 17.73 0 22.09 17.91 40 40 40 7.22 0 14-1.92 19.86-5.27z" fill="#e172c1"/><path d="m216.552 216.472h70v49h-70z" fill="#f8e837"/><path d="m216.552 328.472h70v50h-70l3-26.73z" fill="#f8e837"/><path d="m216.552 216.472h20v49h-20z" fill="#f3d332"/><path d="m216.552 328.472h20v50h-20z" fill="#f3d332"/><path d="m97.952 89.972h96.4v74h-96.4z" fill="#b2e5fb"/><path d="m320.752 89.972h96.4v74h-96.4z" fill="#b2e5fb"/><path d="m94.952 89.972h20v74h-20z" fill="#91dafa"/><path d="m317.752 89.972h20v74h-20z" fill="#91dafa"/></g><g><path d="m360.035 316.421-8-50.883c-.644-4.092-4.479-6.878-8.574-6.244-4.092.644-6.887 4.482-6.244 8.574l7.73 49.161c-17.682 4.134-30.895 20.019-30.895 38.942 0 22.056 17.944 40 40 40s40-17.944 40-40c0-20.022-14.789-36.654-34.017-39.55zm-5.983 64.551c-13.785 0-25-11.215-25-25s11.215-25 25-25 25 11.215 25 25-11.215 25-25 25z"/><path d="m464.552 274.972c-.872 0-1.738.027-2.599.074l-16.677-103.574h34.396c7.928 0 14.921-5.32 17.005-12.937l14.75-53.899c3.269-10.78-5.758-22.482-17.005-22.165h-14.185c-.022-.009-.043-.02-.066-.028l-218.03-81.214c-3.927-1.463-8.252-1.463-12.18 0l-67.936 25.305c-3.881 1.446-5.856 5.765-4.41 9.646s5.764 5.854 9.646 4.41l67.936-25.305c.55-.205 1.157-.205 1.707 0l180.368 67.186h-362.442l79.507-29.616c3.881-1.446 5.856-5.765 4.41-9.646s-5.764-5.854-9.646-4.41l-117.168 43.644c-.023.008-.043.02-.066.028h-14.185c-11.247-.317-20.273 11.386-17.004 22.165l14.75 53.899c2.084 7.617 9.077 12.937 17.005 12.937h25.396l-16.739 103.951c-23.144 3.164-41.038 23.05-41.038 47.049 0 26.191 21.309 47.5 47.5 47.5s47.5-21.309 47.5-47.5c0-.549-.009-1.097-.028-1.642-.141-4.14-3.636-7.377-7.75-7.241-4.14.141-7.382 3.611-7.241 7.751.013.375.019.753.019 1.132 0 17.921-14.58 32.5-32.5 32.5s-32.5-14.579-32.5-32.5c0-17.92 14.578-32.499 32.498-32.5.004 0 .008.001.011.001h.008c6.508.003 12.783 1.921 18.149 5.545 3.433 2.317 8.095 1.416 10.413-2.017 2.319-3.433 1.416-8.095-2.017-10.413-5.437-3.673-11.509-6.146-17.886-7.323l16.793-104.293h92.837l-22.791 144.949c-19.228 2.897-34.016 19.529-34.016 39.551 0 22.056 17.944 40 40 40s40-17.944 40-40c0-18.923-13.213-34.808-30.895-38.942l22.887-145.558h28.008v251.5h-26.5c-26.191 0-47.5 21.309-47.5 47.5v24.004c0 9.647 7.849 17.496 17.497 17.496h132.503c4.142 0 7.5-3.357 7.5-7.5s-3.358-7.5-7.5-7.5h-132.503c-1.376 0-2.497-1.12-2.497-2.496v-24.004c0-17.921 14.58-32.5 32.5-32.5h34 70 34c17.92 0 32.5 14.579 32.5 32.5v24.004c0 1.376-1.12 2.496-2.497 2.496h-30.503c-4.142 0-7.5 3.357-7.5 7.5s3.358 7.5 7.5 7.5h30.503c9.647 0 17.497-7.849 17.497-17.496v-24.004c0-26.191-21.309-47.5-47.5-47.5h-26.5c0-80.391 0-171.111 0-251.5h28.008l9.72 61.821c.582 3.697 3.771 6.336 7.4 6.336.387 0 .78-.03 1.174-.092 4.092-.644 6.887-4.482 6.244-8.574l-9.354-59.491h92.837l17.191 106.767c-17.67 6.927-30.222 24.136-30.222 44.233 0 26.191 21.309 47.5 47.5 47.5s47.5-21.309 47.5-47.5-21.306-47.5-47.497-47.5zm-290.5 81c0 13.785-11.215 25-25 25s-25-11.215-25-25 11.215-25 25-25 25 11.214 25 25zm322.478-257.468c.281.368.711 1.141.428 2.173l-14.75 53.899c-.306 1.116-1.349 1.896-2.537 1.896h-55.02v-59h69.769c1.151 0 1.816.647 2.11 1.032zm-209.978 57.968h-70-14.7v-59h108.4v59zm-184.1 0v-59h84.4v59zm222.8 0v-59h84.4v59zm-295.357-1.896-14.75-53.899c-.233-2.029.478-2.908 2.537-3.206h69.769v59h-55.02c-1.187.001-2.23-.779-2.536-1.895zm194.157 181.396h55v35h-55zm55-15h-55v-48h55zm0-63h-55v-34h55zm-55 165v-37h55v37zm55-214h-55v-37.5h55zm185.5 146c-17.92 0-32.5-14.579-32.5-32.5s14.58-32.5 32.5-32.5 32.5 14.579 32.5 32.5-14.58 32.5-32.5 32.5z"/></g></g></svg>